<svg xmlns="http://www.w3.org/2000/svg" viewBox="0 0 59.19 59.19"><defs><style>.a{opacity:.25}.b{fill:#fff}</style></defs><title>bazaar-symbol</title><g class="a"><path class="b" d="M32.43 1.25l2.84 14.17a5.67 5.67 0 0 1-11.34 0l2.83-14.17z"/></g><g class="a"><path class="b" d="M49.44 1.25l8.5 14.17a5.67 5.67 0 1 1-11.34 0L40.93 1.25z"/></g><g class="a"><path class="b" d="M9.75 1.25l-8.5 14.17a5.67 5.67 0 0 0 11.34 0l5.67-14.17z"/></g><path class="b" d="M57.94 56.69h-4.42V41.78h1.59a1.25 1.25 0 0 0 1.25-1.25v-5.26A1.25 1.25 0 0 0 55.11 34h-7.26V20.74a6.92 6.92 0 0 0 11.34-5.32 1.21 1.21 0 0 0-.18-.64L50.51.61A1.25 1.25 0 0 0 49.44 0H9.75a1.25 1.25 0 0 0-1.07.61L.18 14.78a1.21 1.21 0 0 0-.18.64 6.92 6.92 0 0 0 11.41 5.26V34H4.08a1.25 1.25 0 0 0-1.25 1.25v5.26a1.25 1.25 0 0 0 1.25 1.25h1.59v14.93H1.25a1.25 1.25 0 0 0 0 2.5h56.69a1.25 1.25 0 0 0 0-2.5zM48.73 2.5l8 13.25a4.42 4.42 0 0 1-8.83-.33 1.23 1.23 0 0 0-.05-.25.78.78 0 0 0 0-.21l-5-12.43zm-8.64 0l5.24 13.11a4.41 4.41 0 0 1-8.81-.19.53.53 0 0 0 0-.12.48.48 0 0 0 0-.12L34 2.5zm5.26 18.24V34H13.91V20.8a6.91 6.91 0 0 0 10-1.42 6.91 6.91 0 0 0 11.34 0 6.9 6.9 0 0 0 10.08 1.36zM31.41 2.5l2.6 13a4.41 4.41 0 0 1-8.82 0l2.6-13zm-6.17 0L22.7 15.18v.24a4.41 4.41 0 0 1-8.77.72v-.66l5.19-13zM11.39 15.17a1.23 1.23 0 0 0-.05.25 4.42 4.42 0 0 1-8.83.33l8-13.25h5.95l-5 12.43a.78.78 0 0 0-.07.24zm6.24 41.52H8.17V41.78h9.46zm11.34 0H18.88V41.78H29zm11.34 0H30.22V41.78h10.09zm10.71 0h-9.46V41.78H51zM6.92 39.28H5.33v-2.76h48.53v2.76H6.92z"/></svg>